<svg width="35" height="30" viewBox="0 0 35 30" fill="none" xmlns="http://www.w3.org/2000/svg">
<g clip-path="url(#clip0_67_133)">
<path d="M7.75817 2.01934C11.6516 4.95237 15.8399 10.8984 17.3773 14.0893C18.9146 10.8984 23.1032 4.95237 26.9966 2.01934C29.8065 -0.0964752 34.3585 -1.73403 34.3585 3.476C34.3585 4.51616 33.764 12.2171 33.415 13.4676C32.203 17.8134 27.7852 18.922 23.8557 18.2512C30.7245 19.424 32.4716 23.3083 28.698 27.1928C21.5314 34.5706 18.3973 25.3418 17.5949 22.9771C17.3635 22.2964 17.3965 22.2808 17.1597 22.9771C16.3572 25.3418 13.2234 34.5706 6.0568 27.1928C2.28314 23.3083 4.03027 19.424 10.899 18.2512C6.96954 18.922 2.55172 17.8134 1.33969 13.4676C0.990713 12.2171 0.39624 4.51616 0.39624 3.476C0.39624 -1.73403 4.94885 -0.0964752 7.75817 2.01934Z" fill="#F7F4EB"/>
</g>
<defs>
<clipPath id="clip0_67_133">
<rect width="33.9622" height="30" fill="white" transform="translate(0.39624)"/>
</clipPath>
</defs>
</svg>
